<?xml version="1.0" encoding="utf-8"?>
<!-- Generator: Adobe Illustrator 28.3.0, SVG Export Plug-In . SVG Version: 6.00 Build 0)  -->
<svg version="1.1" id="Layer_1" xmlns="http://www.w3.org/2000/svg" xmlns:xlink="http://www.w3.org/1999/xlink" x="0px" y="0px"
	 viewBox="0 0 512 514" style="enable-background:new 0 0 512 514;" xml:space="preserve">
<style type="text/css">
	.st0{fill-rule:evenodd;clip-rule:evenodd;fill:#1BD96A;stroke:#000000;stroke-width:4;stroke-miterlimit:10;}
	.st1{fill:#1BD96A;stroke:#000000;stroke-width:4;stroke-miterlimit:10;}
	.st2{fill:#FF0000;}
</style>
<g>
	<path class="st0" d="M497.4,322c11.1-41.1,11.9-85.6,0-129.7C461.6,59,324.4-20.1,190.9,15.6C87.8,43.2,17.1,131.1,6.7,231.1H49
		C59,149.9,117.1,79,201.1,56.5c103.8-27.8,210.3,28.3,247.5,126.6l-41.2,11c-18.9-45.8-57.1-79.3-102.3-93.6l-7.6,42.8
		c35.7,13.2,64.6,42.8,75.2,82.3c15.4,57.5-13.3,116.4-65.4,140.9l11.3,42c68.5-28.3,109.7-99.5,99.9-172.9l41-11
		c4.4,28,2.9,55.9-3.8,82.2L497.4,322z"/>
	<path class="st1" d="M320.4,498.4C186.9,534.1,49.7,455,13.9,321.7C9.8,306.1,7.1,290.5,6,275h42.3c1.1,11.6,3.1,23.3,6.3,35
		c3.3,12.2,7.6,23.9,12.8,34.9l37.7-22.6c-3.2-7.3-5.8-15-8-22.9C73.5,212,125.5,122,213.2,98.6c16.6-4.4,33.3-6.2,49.6-5.5
		l-7.6,42.8c-10.2,0-20.6,1.4-30.9,4.2c-64.7,17.3-103,83.7-85.7,148.3c1.1,4,2.3,7.9,3.8,11.6l48.2-28.9L176,232.5l45.5-46.7
		l57.5-12.4l16.7,20.5l-26.5,26.9L246,228l-16.5,17l8.1,22.5c0,0,16.4,17.4,16.4,17.4l23.2-6.2l16.5-18.1l36-11.4l10.7,24.1
		L303.3,319L241,338.7l-27.9-31.1l-48.7,29.2c24.9,28.4,62.4,44.2,101.3,40.9l11.3,42c-58,7.7-114.7-16.3-149.9-60.5l-37.5,22.5
		c49.4,64.9,135,97.1,218.7,74.7c60.3-16.1,107.2-57.2,132.6-109.2l41.6,15.1C452.5,427.1,394.9,478.5,320.4,498.4z"/>
</g>
<g>
	<path d="M139.4,139.6l-37,51.1c-2,2.8-4.8,4.5-8.1,5.1c-3.3,0.5-6.3-0.2-9.2-2.1c-2.8-2-4.5-4.6-5.1-7.9c-0.5-3.3,0.1-6.4,2-9.3
		l41.5-57.2c-12.3-16.6-24.2-34.4-35.4-53.5c-1.6-3-2-6.1-1.2-9.5c0.8-3.3,2.7-5.8,5.7-7.5c3-1.7,6.1-2.1,9.5-1.3
		c3.3,0.8,5.9,2.7,7.6,5.7c10.6,17.9,20.5,33.2,29.7,46c17.4-21.6,34.6-40.8,51.7-57.6c2.4-2.3,5.4-3.5,8.9-3.5s6.4,1.2,8.8,3.7
		c2.4,2.4,3.6,5.4,3.6,8.9s-1.2,6.4-3.7,8.9c-17.8,17.2-35.7,37.2-53.7,60c13.3,16.4,27.5,31.6,42.5,45.6c2.4,2.4,3.7,5.4,3.9,8.8
		c0.1,3.4-1,6.3-3.4,8.9c-2.4,2.5-5.3,3.8-8.6,4c-3.4,0.1-6.4-0.9-9-3.3C165.9,169.8,152.3,155.2,139.4,139.6z"/>
</g>
<g>
	<path d="M382.6,94.4l37-51.1c2-2.8,4.8-4.5,8.1-5.1c3.3-0.5,6.3,0.2,9.2,2.1c2.8,2,4.5,4.6,5.1,7.9c0.5,3.3-0.1,6.4-2,9.3
		l-41.5,57.2c12.3,16.6,24.2,34.4,35.4,53.5c1.6,3,2,6.1,1.2,9.5c-0.8,3.3-2.7,5.8-5.7,7.5c-3,1.7-6.1,2.1-9.5,1.3
		c-3.3-0.8-5.9-2.7-7.6-5.7c-10.6-17.9-20.5-33.2-29.7-46c-17.4,21.6-34.6,40.8-51.7,57.6c-2.4,2.3-5.4,3.5-8.9,3.5
		c-3.5,0-6.4-1.2-8.8-3.7c-2.4-2.4-3.6-5.4-3.6-8.9c0-3.5,1.2-6.4,3.7-8.9c17.8-17.2,35.7-37.2,53.7-60
		c-13.3-16.4-27.5-31.6-42.5-45.6c-2.4-2.4-3.7-5.4-3.9-8.8c-0.1-3.4,1-6.3,3.4-8.9c2.4-2.5,5.3-3.8,8.6-4c3.4-0.1,6.4,0.9,9,3.3
		C356.1,64.2,369.7,78.8,382.6,94.4z"/>
</g>
<g id="XMLID_00000177459225332482124370000015683897805165703553_">
	<g>
		<path class="st2" d="M280.5,353.9c-3.8,60.9-20.4,102.8-42.2,102.8c-40.4,0-85.1-33.9-93.1-81.4c-1.1-6.4,2.7-12.7,8.9-14.8
			c41.8-14,79.8-19.7,112.8-20.7C274.7,339.5,281,346.1,280.5,353.9z"/>
		<path d="M266.9,339.8c-33,1-71,6.7-112.8,20.7c-6.2,2.1-10,8.4-8.9,14.8c8,47.5,52.7,81.4,93.1,81.4c21.8,0,38.4-41.9,42.2-102.8
			C281,346.1,274.7,339.5,266.9,339.8z M449.3,360c5.7,3.9,7.1,11.7,3.2,17.4c-3.9,5.7-11.7,7.1-17.4,3.2
			c-0.4-0.2-37.6-25.2-99.8-36.1c-10.4-1.8-21.8-3.3-34.2-4.1c-1,35-5.8,65.4-14,88.7c-13.9,39.3-34.2,47.6-48.8,47.6
			c-28.3,0-57.1-12.4-79-34.1c-20-19.7-32.1-44.6-34.8-71c-14.5,6.1-29.4,13.1-44.7,21.4c-1.9,1-3.9,1.5-5.9,1.5
			c-4.4,0-8.7-2.4-11-6.5c-3.3-6.1-1-13.7,5-16.9c50.4-27.3,101.7-44.9,152.5-52.4c40.8-6,81.4-5.5,120.5,1.5
			C408.1,332.2,447.6,358.9,449.3,360z"/>
	</g>
	<g>
	</g>
</g>
<g>
	<path d="M229.2,439.3c-9.3,0-22.6-5.7-32.4-33.1c-6.5-18.1-10.1-42-10.1-67.3c0-5.5,4.5-10,10-10s10,4.5,10,10
		c0,23,3.2,44.5,8.9,60.5c5.2,14.4,11.1,19.8,13.6,19.8c5.5,0,10,4.5,10,10S234.8,439.3,229.2,439.3z"/>
</g>
</svg>
